<svg xmlns="http://www.w3.org/2000/svg" viewBox="0 0 136 35" width="136" height="35">
	<style>
		tspan { white-space:pre }
		.shp0 { fill: #10bb77 } 
	</style>
	<path id="Layer" fill-rule="evenodd" class="shp0" d="M19.77 14.38C19.77 15 19.74 15.66 19.66 16.36L3.9 16.36C4.02 18.3 4.68 19.83 5.88 20.93C7.1 22.01 8.58 22.55 10.3 22.55C11.72 22.55 12.9 22.23 13.83 21.58C14.79 20.91 15.46 20.02 15.85 18.92L19.38 18.92C18.85 20.81 17.79 22.36 16.21 23.56C14.62 24.74 12.66 25.32 10.3 25.32C8.43 25.32 6.75 24.9 5.26 24.06C3.8 23.22 2.65 22.04 1.81 20.5C0.97 18.94 0.55 17.14 0.55 15.1C0.55 13.06 0.96 11.27 1.77 9.74C2.59 8.2 3.73 7.02 5.19 6.21C6.68 5.37 8.38 4.95 10.3 4.95C12.18 4.95 13.83 5.36 15.27 6.17C16.71 6.99 17.82 8.12 18.58 9.56C19.38 10.97 19.77 12.58 19.77 14.38ZM16.39 13.7C16.39 12.45 16.11 11.38 15.56 10.49C15.01 9.58 14.25 8.9 13.29 8.44C12.36 7.96 11.31 7.72 10.16 7.72C8.5 7.72 7.09 8.25 5.91 9.3C4.76 10.36 4.1 11.82 3.93 13.7L16.39 13.7ZM32.23 4.95C33.94 4.95 35.42 5.32 36.7 6.06C37.99 6.81 38.95 7.74 39.58 8.87L39.58 5.27L42.89 5.27L42.89 25.43C42.89 27.23 42.5 28.83 41.74 30.22C40.97 31.64 39.86 32.74 38.42 33.53C37.01 34.32 35.35 34.72 33.46 34.72C30.86 34.72 28.7 34.11 26.98 32.88C25.25 31.66 24.23 29.99 23.92 27.88L27.16 27.88C27.52 29.08 28.26 30.04 29.39 30.76C30.52 31.5 31.87 31.88 33.46 31.88C35.26 31.88 36.72 31.31 37.85 30.18C39 29.06 39.58 27.47 39.58 25.43L39.58 21.29C38.93 22.44 37.97 23.4 36.7 24.17C35.42 24.94 33.94 25.32 32.23 25.32C30.48 25.32 28.88 24.89 27.44 24.03C26.03 23.16 24.91 21.95 24.1 20.39C23.28 18.83 22.87 17.06 22.87 15.06C22.87 13.05 23.28 11.28 24.1 9.77C24.91 8.24 26.03 7.05 27.44 6.21C28.88 5.37 30.48 4.95 32.23 4.95ZM39.58 15.1C39.58 13.61 39.28 12.32 38.68 11.21C38.08 10.11 37.26 9.27 36.23 8.69C35.22 8.09 34.1 7.79 32.88 7.79C31.66 7.79 30.54 8.08 29.53 8.66C28.52 9.23 27.72 10.07 27.12 11.18C26.52 12.28 26.22 13.58 26.22 15.06C26.22 16.58 26.52 17.9 27.12 19.02C27.72 20.13 28.52 20.98 29.53 21.58C30.54 22.16 31.66 22.44 32.88 22.44C34.1 22.44 35.22 22.16 36.23 21.58C37.26 20.98 38.08 20.13 38.68 19.02C39.28 17.9 39.58 16.59 39.58 15.1ZM66.42 14.38C66.42 15 66.39 15.66 66.32 16.36L50.55 16.36C50.67 18.3 51.33 19.83 52.53 20.93C53.75 22.01 55.23 22.55 56.96 22.55C58.37 22.55 59.55 22.23 60.48 21.58C61.44 20.91 62.12 20.02 62.5 18.92L66.03 18.92C65.5 20.81 64.44 22.36 62.86 23.56C61.28 24.74 59.31 25.32 56.96 25.32C55.08 25.32 53.4 24.9 51.92 24.06C50.45 23.22 49.3 22.04 48.46 20.5C47.62 18.94 47.2 17.14 47.2 15.1C47.2 13.06 47.61 11.27 48.42 9.74C49.24 8.2 50.38 7.02 51.84 6.21C53.33 5.37 55.04 4.95 56.96 4.95C58.83 4.95 60.48 5.36 61.92 6.17C63.36 6.99 64.47 8.12 65.24 9.56C66.03 10.97 66.42 12.58 66.42 14.38ZM63.04 13.7C63.04 12.45 62.76 11.38 62.21 10.49C61.66 9.58 60.9 8.9 59.94 8.44C59.01 7.96 57.96 7.72 56.81 7.72C55.16 7.72 53.74 8.25 52.56 9.3C51.41 10.36 50.75 11.82 50.58 13.7L63.04 13.7ZM77.73 25.32C76.22 25.32 74.86 25.07 73.66 24.57C72.46 24.04 71.52 23.32 70.82 22.41C70.12 21.47 69.74 20.4 69.67 19.2L73.05 19.2C73.15 20.19 73.6 20.99 74.42 21.62C75.26 22.24 76.35 22.55 77.7 22.55C78.94 22.55 79.93 22.28 80.65 21.72C81.37 21.17 81.73 20.48 81.73 19.64C81.73 18.77 81.34 18.14 80.58 17.73C79.81 17.3 78.62 16.88 77.01 16.47C75.55 16.08 74.35 15.7 73.41 15.32C72.5 14.91 71.71 14.32 71.04 13.55C70.39 12.76 70.06 11.73 70.06 10.46C70.06 9.45 70.36 8.52 70.96 7.68C71.56 6.84 72.42 6.18 73.52 5.7C74.62 5.2 75.88 4.95 77.3 4.95C79.48 4.95 81.25 5.5 82.59 6.6C83.94 7.71 84.66 9.22 84.75 11.14L81.48 11.14C81.4 10.11 80.98 9.28 80.22 8.66C79.47 8.03 78.46 7.72 77.19 7.72C76.02 7.72 75.08 7.97 74.38 8.48C73.69 8.98 73.34 9.64 73.34 10.46C73.34 11.1 73.54 11.64 73.95 12.08C74.38 12.48 74.91 12.82 75.54 13.08C76.18 13.32 77.07 13.6 78.2 13.91C79.62 14.3 80.77 14.68 81.66 15.06C82.54 15.42 83.3 15.98 83.92 16.72C84.57 17.46 84.91 18.44 84.93 19.64C84.93 20.72 84.63 21.69 84.03 22.55C83.43 23.42 82.58 24.1 81.48 24.6C80.4 25.08 79.15 25.32 77.73 25.32ZM93.55 7.97L93.55 19.6C93.55 20.56 93.76 21.24 94.17 21.65C94.57 22.04 95.28 22.23 96.29 22.23L98.7 22.23L98.7 25L95.75 25C93.93 25 92.56 24.58 91.65 23.74C90.73 22.9 90.28 21.52 90.28 19.6L90.28 7.97L87.72 7.97L87.72 5.27L90.28 5.27L90.28 0.3L93.55 0.3L93.55 5.27L98.7 5.27L98.7 7.97L93.55 7.97ZM111.27 25.32C109.43 25.32 107.75 24.9 106.23 24.06C104.75 23.22 103.57 22.04 102.71 20.5C101.87 18.94 101.45 17.14 101.45 15.1C101.45 13.08 101.88 11.31 102.74 9.77C103.63 8.21 104.83 7.02 106.34 6.21C107.85 5.37 109.55 4.95 111.42 4.95C113.29 4.95 114.98 5.37 116.49 6.21C118.01 7.02 119.19 8.2 120.06 9.74C120.95 11.27 121.39 13.06 121.39 15.1C121.39 17.14 120.93 18.94 120.02 20.5C119.13 22.04 117.92 23.22 116.39 24.06C114.85 24.9 113.15 25.32 111.27 25.32ZM111.27 22.44C112.45 22.44 113.55 22.17 114.59 21.62C115.62 21.06 116.45 20.24 117.07 19.13C117.72 18.03 118.04 16.68 118.04 15.1C118.04 13.52 117.73 12.17 117.11 11.07C116.48 9.96 115.67 9.15 114.66 8.62C113.65 8.07 112.56 7.79 111.38 7.79C110.18 7.79 109.08 8.07 108.07 8.62C107.09 9.15 106.29 9.96 105.69 11.07C105.09 12.17 104.79 13.52 104.79 15.1C104.79 16.71 105.08 18.06 105.66 19.17C106.26 20.27 107.05 21.1 108.03 21.65C109.02 22.18 110.1 22.44 111.27 22.44ZM128.97 8.48C129.55 7.35 130.37 6.47 131.42 5.85C132.5 5.22 133.81 4.91 135.35 4.91L135.35 8.3L134.48 8.3C130.81 8.3 128.97 10.29 128.97 14.27L128.97 25L125.7 25L125.7 5.27L128.97 5.27L128.97 8.48Z" />
</svg>