<svg width="136" height="35" viewBox="0 0 136 35" fill="none" xmlns="http://www.w3.org/2000/svg">
<path d="M19.772 14.38C19.772 15.004 19.736 15.664 19.664 16.36H3.896C4.016 18.304 4.676 19.828 5.876 20.932C7.1 22.012 8.576 22.552 10.304 22.552C11.72 22.552 12.896 22.228 13.832 21.58C14.792 20.908 15.464 20.02 15.848 18.916H19.376C18.848 20.812 17.792 22.36 16.208 23.56C14.624 24.736 12.656 25.324 10.304 25.324C8.432 25.324 6.752 24.904 5.264 24.064C3.8 23.224 2.648 22.036 1.808 20.5C0.968 18.94 0.548 17.14 0.548 15.1C0.548 13.06 0.956 11.272 1.772 9.736C2.588 8.2 3.728 7.024 5.192 6.208C6.68 5.368 8.384 4.948 10.304 4.948C12.176 4.948 13.832 5.356 15.272 6.172C16.712 6.988 17.816 8.116 18.584 9.556C19.376 10.972 19.772 12.58 19.772 14.38ZM16.388 13.696C16.388 12.448 16.112 11.38 15.56 10.492C15.008 9.58 14.252 8.896 13.292 8.44C12.356 7.96 11.312 7.72 10.16 7.72C8.504 7.72 7.088 8.248 5.912 9.304C4.76 10.36 4.1 11.824 3.932 13.696H16.388ZM32.2322 4.948C33.9362 4.948 35.4242 5.32 36.6962 6.064C37.9922 6.808 38.9522 7.744 39.5762 8.872V5.272H42.8882V25.432C42.8882 27.232 42.5042 28.828 41.7362 30.22C40.9682 31.636 39.8642 32.74 38.4242 33.532C37.0082 34.324 35.3522 34.72 33.4562 34.72C30.8642 34.72 28.7042 34.108 26.9762 32.884C25.2482 31.66 24.2282 29.992 23.9162 27.88H27.1562C27.5162 29.08 28.2602 30.04 29.3882 30.76C30.5162 31.504 31.8722 31.876 33.4562 31.876C35.2562 31.876 36.7202 31.312 37.8482 30.184C39.0002 29.056 39.5762 27.472 39.5762 25.432V21.292C38.9282 22.444 37.9682 23.404 36.6962 24.172C35.4242 24.94 33.9362 25.324 32.2322 25.324C30.4802 25.324 28.8842 24.892 27.4442 24.028C26.0282 23.164 24.9122 21.952 24.0962 20.392C23.2802 18.832 22.8722 17.056 22.8722 15.064C22.8722 13.048 23.2802 11.284 24.0962 9.772C24.9122 8.236 26.0282 7.048 27.4442 6.208C28.8842 5.368 30.4802 4.948 32.2322 4.948ZM39.5762 15.1C39.5762 13.612 39.2762 12.316 38.6762 11.212C38.0762 10.108 37.2602 9.268 36.2282 8.692C35.2202 8.092 34.1042 7.792 32.8802 7.792C31.6562 7.792 30.5402 8.08 29.5322 8.656C28.5242 9.232 27.7202 10.072 27.1202 11.176C26.5202 12.28 26.2202 13.576 26.2202 15.064C26.2202 16.576 26.5202 17.896 27.1202 19.024C27.7202 20.128 28.5242 20.98 29.5322 21.58C30.5402 22.156 31.6562 22.444 32.8802 22.444C34.1042 22.444 35.2202 22.156 36.2282 21.58C37.2602 20.98 38.0762 20.128 38.6762 19.024C39.2762 17.896 39.5762 16.588 39.5762 15.1ZM66.4243 14.38C66.4243 15.004 66.3883 15.664 66.3163 16.36H50.5483C50.6683 18.304 51.3283 19.828 52.5283 20.932C53.7523 22.012 55.2283 22.552 56.9563 22.552C58.3723 22.552 59.5483 22.228 60.4843 21.58C61.4443 20.908 62.1163 20.02 62.5003 18.916H66.0283C65.5003 20.812 64.4443 22.36 62.8603 23.56C61.2763 24.736 59.3083 25.324 56.9563 25.324C55.0843 25.324 53.4043 24.904 51.9163 24.064C50.4523 23.224 49.3003 22.036 48.4603 20.5C47.6203 18.94 47.2003 17.14 47.2003 15.1C47.2003 13.06 47.6083 11.272 48.4243 9.736C49.2403 8.2 50.3803 7.024 51.8443 6.208C53.3323 5.368 55.0363 4.948 56.9563 4.948C58.8283 4.948 60.4843 5.356 61.9243 6.172C63.3643 6.988 64.4683 8.116 65.2363 9.556C66.0283 10.972 66.4243 12.58 66.4243 14.38ZM63.0403 13.696C63.0403 12.448 62.7643 11.38 62.2123 10.492C61.6603 9.58 60.9043 8.896 59.9443 8.44C59.0083 7.96 57.9643 7.72 56.8123 7.72C55.1563 7.72 53.7403 8.248 52.5643 9.304C51.4123 10.36 50.7523 11.824 50.5843 13.696H63.0403ZM77.7326 25.324C76.2206 25.324 74.8646 25.072 73.6646 24.568C72.4646 24.04 71.5166 23.32 70.8206 22.408C70.1246 21.472 69.7406 20.404 69.6686 19.204H73.0526C73.1486 20.188 73.6046 20.992 74.4206 21.616C75.2606 22.24 76.3526 22.552 77.6966 22.552C78.9446 22.552 79.9286 22.276 80.6486 21.724C81.3686 21.172 81.7286 20.476 81.7286 19.636C81.7286 18.772 81.3446 18.136 80.5766 17.728C79.8086 17.296 78.6206 16.876 77.0126 16.468C75.5486 16.084 74.3486 15.7 73.4126 15.316C72.5006 14.908 71.7086 14.32 71.0366 13.552C70.3886 12.76 70.0646 11.728 70.0646 10.456C70.0646 9.448 70.3646 8.524 70.9646 7.684C71.5646 6.844 72.4166 6.184 73.5206 5.704C74.6246 5.2 75.8846 4.948 77.3006 4.948C79.4846 4.948 81.2486 5.5 82.5926 6.604C83.9366 7.708 84.6566 9.22 84.7526 11.14H81.4766C81.4046 10.108 80.9846 9.28 80.2166 8.656C79.4726 8.032 78.4646 7.72 77.1926 7.72C76.0166 7.72 75.0806 7.972 74.3846 8.476C73.6886 8.98 73.3406 9.64 73.3406 10.456C73.3406 11.104 73.5446 11.644 73.9526 12.076C74.3846 12.484 74.9126 12.82 75.5366 13.084C76.1846 13.324 77.0726 13.6 78.2006 13.912C79.6166 14.296 80.7686 14.68 81.6566 15.064C82.5446 15.424 83.3006 15.976 83.9246 16.72C84.5726 17.464 84.9086 18.436 84.9326 19.636C84.9326 20.716 84.6326 21.688 84.0326 22.552C83.4326 23.416 82.5806 24.1 81.4766 24.604C80.3966 25.084 79.1486 25.324 77.7326 25.324ZM93.5532 7.972V19.6C93.5532 20.56 93.7572 21.244 94.1652 21.652C94.5732 22.036 95.2812 22.228 96.2892 22.228H98.7012V25H95.7492C93.9252 25 92.5572 24.58 91.6452 23.74C90.7332 22.9 90.2772 21.52 90.2772 19.6V7.972H87.7212V5.272H90.2772V0.303998H93.5532V5.272H98.7012V7.972H93.5532ZM111.274 25.324C109.426 25.324 107.746 24.904 106.234 24.064C104.746 23.224 103.57 22.036 102.706 20.5C101.866 18.94 101.446 17.14 101.446 15.1C101.446 13.084 101.878 11.308 102.742 9.772C103.63 8.212 104.83 7.024 106.342 6.208C107.854 5.368 109.546 4.948 111.418 4.948C113.29 4.948 114.982 5.368 116.494 6.208C118.006 7.024 119.194 8.2 120.058 9.736C120.946 11.272 121.39 13.06 121.39 15.1C121.39 17.14 120.934 18.94 120.022 20.5C119.134 22.036 117.922 23.224 116.386 24.064C114.85 24.904 113.146 25.324 111.274 25.324ZM111.274 22.444C112.45 22.444 113.554 22.168 114.586 21.616C115.618 21.064 116.446 20.236 117.07 19.132C117.718 18.028 118.042 16.684 118.042 15.1C118.042 13.516 117.73 12.172 117.106 11.068C116.482 9.964 115.666 9.148 114.658 8.62C113.65 8.068 112.558 7.792 111.382 7.792C110.182 7.792 109.078 8.068 108.07 8.62C107.086 9.148 106.294 9.964 105.694 11.068C105.094 12.172 104.794 13.516 104.794 15.1C104.794 16.708 105.082 18.064 105.658 19.168C106.258 20.272 107.05 21.1 108.034 21.652C109.018 22.18 110.098 22.444 111.274 22.444ZM128.974 8.476C129.55 7.348 130.366 6.472 131.422 5.848C132.502 5.224 133.81 4.912 135.346 4.912V8.296H134.482C130.81 8.296 128.974 10.288 128.974 14.272V25H125.698V5.272H128.974V8.476Z" fill="white"/>
</svg>
